<svg xmlns="http://www.w3.org/2000/svg" viewBox="0 0 24 24"><defs></defs><path id="HeartFill-__Heart" class="HeartFill-__cls-1" d="M18.88,5.78c.63.64,1.12,1.68,1.12,3.21,0,2.46-1.83,4.23-4.12,6.06-.21.17-.43.34-.65.51-.89.7-1.81,1.43-2.54,2.17-.24.25-.48.51-.69.79-.21-.28-.45-.54-.69-.79-.72-.74-1.64-1.46-2.54-2.17-.22-.17-.44-.34-.65-.51-2.29-1.83-4.12-3.6-4.12-6.06,0-1.53.49-2.56,1.12-3.21.64-.65,1.49-.97,2.36-.95,1.67.04,3.52,1.36,3.52,4.34h2c0-2.99,1.85-4.31,3.52-4.34.87-.02,1.72.3,2.36.95ZM14.12,19.12c.62-.64,1.41-1.26,2.29-1.95.23-.18.47-.37.71-.56,2.21-1.76,4.88-4.09,4.88-7.63,0-1.97-.64-3.54-1.69-4.61-1.05-1.06-2.44-1.57-3.83-1.55-1.76.04-3.45.93-4.48,2.57-1.03-1.64-2.72-2.53-4.48-2.57-1.38-.03-2.78.48-3.83,1.55-1.05,1.07-1.69,2.64-1.69,4.61,0,3.54,2.67,5.86,4.88,7.63.24.19.48.38.71.56.88.69,1.67,1.31,2.29,1.95.78.8,1.12,1.45,1.12,2.05h2c0-.6.34-1.25,1.12-2.05Z"/><path id="HeartFill-__HeartFill" class="HeartFill-__cls-1" d="M14.12,19.12c.62-.64,1.41-1.26,2.29-1.95.23-.18.47-.37.71-.56,2.21-1.76,4.88-4.09,4.88-7.63,0-1.97-.64-3.54-1.69-4.61-1.05-1.06-2.44-1.57-3.83-1.55-1.76.04-3.45.93-4.48,2.57-1.03-1.64-2.72-2.53-4.48-2.57-1.38-.03-2.78.48-3.83,1.55-1.05,1.07-1.69,2.64-1.69,4.61,0,3.54,2.67,5.86,4.88,7.63.24.19.48.38.71.56.88.69,1.67,1.31,2.29,1.95.78.8,1.12,1.45,1.12,2.05h2c0-.6.34-1.25,1.12-2.05Z"/></svg>