<svg xmlns="http://www.w3.org/2000/svg" viewBox="0 0 24 24"><defs></defs><path id="Share-__share" class="Share-__cls-1" d="M10.97,1.69s-.01.07-.05.19c-.05.14-.12.33-.23.56-.22.45-.57,1.03-1.06,1.66-.96,1.26-2.42,2.72-4.37,3.94l1.09,1.75c1.99-1.24,3.52-2.71,4.61-4.05v9.37h2.06V5.73c1.09,1.34,2.63,2.81,4.61,4.05l1.09-1.75c-1.95-1.22-3.4-2.68-4.37-3.94-.48-.63-.83-1.2-1.06-1.66-.11-.23-.19-.42-.23-.56-.04-.11-.05-.17-.05-.19,0,0,0,0,0,0h0s-2.06,0-2.06,0h0s0,0,0,0ZM4.78,13.03v2.65c0,1.2,0,2.01.07,2.63.07.6.18.89.33,1.1.12.17.27.31.43.43.2.15.5.27,1.1.33.62.07,1.44.07,2.63.07h5.3c1.2,0,2.01,0,2.63-.07.6-.07.89-.18,1.1-.33.17-.12.31-.27.43-.43.15-.2.27-.5.33-1.1.07-.62.07-1.44.07-2.63v-2.65h2.06v2.71h0c0,1.13,0,2.05-.08,2.8-.09.78-.27,1.48-.73,2.1-.24.33-.54.62-.87.87-.62.46-1.32.64-2.1.73-.75.08-1.67.08-2.8.08h-5.42c-1.13,0-2.05,0-2.8-.08-.78-.09-1.48-.27-2.1-.73-.33-.24-.62-.54-.87-.87-.46-.62-.64-1.32-.73-2.1-.08-.75-.08-1.67-.08-2.8h0v-2.71h2.06Z"/></svg>