<svg xmlns="http://www.w3.org/2000/svg" viewBox="0 0 24 24"><path id="Shield-__shield" d="M13.05,22.29h-2.1s0-.04,0-.06c0-.09-.13-.93-1.44-2.03-.43-.36-.93-.73-1.47-1.13-2.37-1.75-5.32-3.94-5.32-7.07V1.68h2.1c0,.15.16,1.69,3.07,1.69s3.06-1.54,3.07-1.72l2.1.02c0,.15.16,1.69,3.07,1.69s3.06-1.54,3.07-1.72l2.1.02v10.32c0,3.13-2.95,5.32-5.32,7.07-.53.4-1.04.77-1.47,1.12-1.31,1.09-1.44,1.93-1.44,2.03,0,.02,0,.04,0,.06ZM4.82,4.83v7.17c0,2.08,2.48,3.91,4.47,5.38.57.42,1.11.82,1.56,1.2.48.4.86.79,1.15,1.16.29-.37.67-.76,1.15-1.16.46-.38.99-.78,1.56-1.2,1.99-1.47,4.47-3.31,4.47-5.38v-7.17c-.76.39-1.76.64-3.07.64-2.04,0-3.34-.62-4.12-1.41-.78.79-2.07,1.41-4.12,1.41-1.31,0-2.31-.25-3.07-.64ZM17.32,8.19l-1.75-1.16-3.55,5.35-2.12-3.32-1.77,1.13,2.98,4.68,1.76.02,4.45-6.69Z"/></svg>